# xmcd
#
# Track frame offsets:
#	150
#	14274
#	30256
#	46034
#	60681
#	73046
#	88203
#	111108
#	134080
#	149495
#	166109
#	178262
#	198799
#	219714
#	236571
#	250766
#	269876
#	285370
#	300635
#	318247
#
# Disc length: 4513 seconds
#
# Revision: 1
# Processed by: cddbd v1.5.1PL0 Copyright (c) Steve Scherf et al.
# Submitted via: CDex 1.50Beta5
#
DISCID=25119f14
DTITLE=Various Artist - フォーク・ポップス黄金時代02
DYEAR=1997
DGENRE=Pop
TTITLE0=ジローズ/戦争を知らない子供たち
TTITLE1=浅川マキ/夜が明けたら
TTITLE2=モップス/たどりついたらいつも雨ふり
TTITLE3=加藤和彦と北山修/あの素晴らしい愛をもう一度
TTITLE4=RCサクセション/僕の好きな先生
TTITLE5=オフコース/眠れぬ夜
TTITLE6=オフコース/さよなら
TTITLE7=オフコース/Yes-No
TTITLE8=りりィ/私は泣いています
TTITLE9=チューリップ/心の旅
TTITLE10=チューリップ/銀の指輪
TTITLE11=チューリップ/サボテンの花
TTITLE12=ダウン・タウン・ブギウギ・バンド/港のヨーコ・ヨコハマ・ヨコスカ
TTITLE13=かまやつひろし/我が良き友よ
TTITLE14=アリス/冬の稲妻
TTITLE15=アリス/チャンピオン
TTITLE16=堀内孝雄/君のひとみは１００００ボルト
TTITLE17=尾崎亜美/マイ・ピュア・レディ
TTITLE18=甲斐バンド/Hero〜ヒーローになる時、それは今
TTITLE19=甲斐バンド/安奈
EXTD=
EXTT0=
EXTT1=
EXTT2=
EXTT3=
EXTT4=
EXTT5=
EXTT6=
EXTT7=
EXTT8=
EXTT9=
EXTT10=
EXTT11=
EXTT12=
EXTT13=
EXTT14=
EXTT15=
EXTT16=
EXTT17=
EXTT18=
EXTT19=
PLAYORDER=
